<svg xmlns="http://www.w3.org/2000/svg" viewBox="0 0 80 80">
  <defs>
    <style>
      .cls-1{opacity:1;}
      .cls-2{fill:#fdb25b;}
      .cls-3{fill:#f9f871;}
      .cls-4{fill:#de7561;}
      .cls-5{fill:#a44a65;}
      .cls-6{fill:#5b2e58;}
    </style>
  </defs>
  <g class="cls-1">
    <polygon class="cls-2" points="15.77 54.41 40.17 10.24 64.49 54.41 15.77 54.41"/>
    <polygon class="cls-3" points="15.77 54.41 5.52 19.54 40.17 10.24 15.77 54.41"/>
    <polygon class="cls-4" points="40.17 10.24 74.48 19.45 64.49 54.41 40.17 10.24"/>
    <polygon class="cls-4" points="15.77 54.41 40.13 79.97 64.49 54.41 15.77 54.41"/>
    <polygon class="cls-2" points="15.77 54.41 5.52 59.98 5.52 19.54 15.77 54.41"/>
    <polygon class="cls-5" points="5.52 59.98 15.77 54.41 40.13 79.97 5.52 59.98"/>
    <polygon class="cls-6" points="64.49 54.41 74.48 60.09 40.13 79.97 64.49 54.41"/>
    <polygon class="cls-6" points="74.48 19.45 74.48 60.09 64.49 54.41 74.48 19.45"/>
    <polygon class="cls-2" points="40.17 10.24 40.13 0 5.52 19.54 40.17 10.24"/>
    <polygon class="cls-5" points="40.13 0 74.48 19.45 40.17 10.24 40.13 0"/>
  </g>
</svg>