<svg xmlns="http://www.w3.org/2000/svg" viewBox="0 0 1920 50">
  <defs>
    <style>
      .cls-1{fill:#151736;}
      .cls-2{opacity:0.6;}
      .cls-3{opacity:0.3;}
    </style>
  </defs>
  <g id="full">
    <path class="cls-1" d="M1920,0V40c-18.54.74-39.3.73-61.52-.36l-2.82-.14c-9.43-.51-19.09-1.18-28.91-2.11s-19.86-2-30.11-3.16c-20.43-2.44-41.58-5.44-63.69-8.68l-11.49-1.67q-11.09-1.62-22.57-3.25-17.48-2.46-36.12-4.73c-24.84-3-51.6-5.34-79.71-6.84s-57.61-2.24-88-2.36-61.67.35-93.67,1.17-64.73,2-98.14,3.11L1201,14.46l-96.35,3.3L985.94,21.84q-55.25,1.9-109.11,3.49T770.76,27.5l-12.6.13q-45.67.4-89.75-.15-50.08-.66-97.56-2.8c-31.61-1.38-62.28-3.12-92.07-4.84S420.1,16.39,392,14.9s-55.27-2.72-81.56-3.58L291,10.75c-6.46-.15-12.87-.26-19.19-.4-12.65-.24-25.07-.32-37.19-.31-48.53.07-92.5,2.05-130.14,5.28C85.63,17,68.38,18.87,52.84,21s-29.34,4.34-41.42,6.6Q5.42,28.66,0,29.77V0Z"/>
  </g>
  <g id="mid" class="cls-2">
    <path class="cls-1" d="M1920,0V33.81q-25.3,1-53.91,1.78c-2.52,0-5,.12-7.61.19l-.9,0-8.66.17c-5.8.13-11.72.21-17.69.3-3,.06-6,.09-9,.12l-9.16.1c-3.07,0-6.17,0-9.29.06s-6.24.05-9.4.06c-6.31,0-12.69,0-19.15,0l-9.74,0-9.85-.07-5,0-5,0c-3.33,0-6.68-.08-10.05-.12l-10.13-.17-5.1-.08-5.12-.1-10.31-.22-10.39-.27-5.22-.13-5.23-.17-10.54-.32c-7-.26-14.13-.49-21.22-.79s-14.25-.61-21.45-.94q-9.59-.45-19.25-1-12-.64-24.19-1.35c-14.64-.85-29.45-1.74-44.54-2.64s-30.45-1.77-46.21-2.55-31.92-1.49-48.49-2-33.61-.81-50.86-.83-34.68.23-52.09.72c-4.33.14-8.7.26-13,.41l-13,.5-13,.57c-4.32.19-8.62.42-13,.64q-25.87,1.34-51.48,3.12-14.37,1-28.7,2c-24.58,1.81-49.18,3.74-74.18,5.61-34.74,2.59-70.39,5.07-107.72,6.76-18.65.84-37.47,1.46-56.33,1.78q-15,.26-30,.25-13.25,0-26.37-.19c-37.3-.53-73.39-2.13-108-4.11s-68-4.31-100.79-6.55l-15.2-1q-16.9-1.14-33.68-2.21-24.3-1.54-48.51-2.81c-32.27-1.65-64.58-2.84-96.42-3.18L509.93,25c-2,0-4,0-5.94,0l-11.82,0c-1,0-2,0-2.93,0l-2.94,0-5.84,0c-3.89,0-7.77,0-11.62.1l-11.5.16-2.86,0-2.84.07-5.67.11c-1.89,0-3.77.07-5.65.12s-3.75.07-5.61.13l-11.12.3c-1.84.06-3.69.1-5.51.17s-3.65.11-5.47.18q-5.46.16-10.87.36l-10.71.4c-3.55.14-7.1.27-10.59.42-7,.3-14,.58-20.79.89l-10.21.47-10.08.48q-16.73.81-32.81,1.62-22.5,1.14-43.82,2.19c-24.42,1.2-47.77,2.26-70.13,3S149,37.48,129,37.73c-10,.12-19.68.19-29,.18s-18.27,0-26.83-.17l-10.42-.17c-4.82-.09-9.51-.2-14-.34-3.88-.1-7.63-.23-11.29-.35-1.84-.05-3.62-.14-5.4-.21s-3.53-.12-5.24-.21C16.9,36,8,35.55,0,35V0Z"/>
  </g>
  <g id="low" class="cls-3">
    <path class="cls-1" d="M1920,0l-.14,4.64c-34.8,2.66-73,6.31-114,10.75-25.24,2.72-51.61,5.72-79.06,8.84l-1.21.15c-27.08,3.07-55.23,6.27-84.45,9.36q-12.67,1.34-25.64,2.64c-21.68,2.16-43.93,4.22-66.76,6-31.94,2.52-65,4.56-99.11,5.61s-69.16,1.09-104.74-.46c-17.77-.77-35.66-1.94-53.53-3.57-9-.76-17.88-1.74-26.81-2.75s-17.85-2.15-26.76-3.36q-10.9-1.47-21.8-3.08c-28.45-4.15-57-8.86-86.12-13.31q-11.2-1.71-22.56-3.35l-5.1-.72q-13.92-2-28.12-3.72c-9.45-1.19-19-2.22-28.65-3.18S1026,8.79,1016.16,8.12,996.46,7,986.6,6.71c-2.47-.08-5-.12-7.4-.17l-3.7-.08-3.69,0c-2.48,0-4.93,0-7.4,0l-7.36.07-3.68,0-3.68.1c-2.45.06-4.89.12-7.33.2l-7.31.28-3.64.17-3.63.19-7.26.4-7.21.49-3.6.25-3.58.28L899,9.47c-38,3.31-74.37,8.68-109.68,14.17L760,28.24c-21.43,3.35-42.64,6.6-63.82,9.41q-5.61.75-11.21,1.44c-17.25,2.13-34.49,3.95-51.71,5.27l-6.47.46c-2.14.14-4.29.32-6.45.41l-12.89.67-3.21.17c-1.07.06-2.13.11-3.22.14l-6.42.2c-4.28.12-8.55.27-12.79.38-34.1.63-67.43-.3-99.63-1.82s-63.39-3.64-93.58-5.54c-27.92-1.74-55-3.33-81.28-4.35l-6.39-.24c-28.26-.94-55.46-1.2-81.41-1l-19.22.33-4.72.08c-1.57,0-3.14.09-4.7.15l-9.29.29c-12.33.32-24.27.95-35.9,1.48-2.91.12-5.78.33-8.64.49l-8.51.52c-5.62.35-11.17.65-16.59,1.09l-16,1.22L92,39.8l-3.88.35-7.65.69q-9,.82-17.56,1.67C39.57,44.84,18.58,47.42,0,50V0Z"/>
  </g>
</svg>