<svg xmlns="http://www.w3.org/2000/svg" viewBox="0 0 1920 30"><defs><style>.cls-1{fill:#151736;}.cls-2{opacity:0.6;}.cls-3{opacity:0.3;}</style></defs><g id="full"><path class="cls-1" d="M0,30V21.61q25.31-.25,53.91-.44l7.61-.05h.9l8.66,0C76.88,21,82.8,21,88.77,21l9,0L107,21l9.29,0h38.29l9.85,0h9.94l10.05,0,10.13,0,5.1,0,5.12,0,10.31.05,10.39.07,5.22,0,5.23,0,10.54.08c7,.07,14.13.12,21.22.2l21.45.23,19.25.24,24.19.34,44.54.65c15.08.22,30.45.44,46.21.64s31.92.37,48.49.49,33.61.21,50.86.21,34.68-.06,52.09-.18l13-.1,13-.12,13-.14,13-.16q25.88-.34,51.48-.78l28.7-.5c24.58-.45,49.18-.93,74.18-1.4,34.74-.64,70.39-1.25,107.72-1.67,18.65-.21,37.47-.37,56.33-.44q15-.08,30-.07,13.25,0,26.37.05c37.3.13,73.39.53,108,1s68,1.07,100.79,1.63l15.2.26,33.68.54q24.3.39,48.51.7c32.27.41,64.58.71,96.42.79l6,0h17.76c1,0,2,0,2.93,0h8.78l11.62,0,11.5,0h2.86l2.84,0,5.67,0,5.65,0c1.88,0,3.75,0,5.61,0l11.12-.07,5.51,0,5.47-.05,10.87-.09,10.71-.1,10.59-.1,20.79-.22,10.21-.12,10.08-.12,32.81-.4,43.82-.55q36.63-.44,70.13-.74c22.35-.19,43.65-.32,63.65-.38,10,0,19.68-.05,29-.05s18.27,0,26.83.05l10.42,0,14,.08,11.29.09,5.4,0,5.24.05q14.76.16,26.74.36V30Z"/></g><g id="mid" class="cls-2"><path class="cls-1" d="M1920,16.13V30H0l.16-1.9C39.76,27,83.2,25.51,130,23.68q43.1-1.66,90-3.63l1.38-.06q46.23-1.89,96.13-3.84,14.41-.54,29.17-1.08,37-1.34,76-2.48Q477.17,11,535.45,10.28c38.78-.43,78.73-.45,119.22.19,20.23.32,40.6.8,60.94,1.47,10.19.31,20.34.71,30.51,1.13s20.32.88,30.46,1.38q12.42.6,24.82,1.26c32.38,1.7,64.86,3.64,98,5.47q12.76.69,25.68,1.37l5.81.3q15.86.81,32,1.53t32.62,1.3q16.47.59,33.28,1t33.65.58l8.42.07,4.21,0h4.2c2.81,0,5.61,0,8.42,0l8.38,0h4.19l4.19,0c2.78,0,5.57,0,8.34-.08l8.32-.11,4.15-.07,4.13-.08,8.26-.16,8.2-.2,4.1-.11,4.08-.11,8.14-.24c43.3-1.36,84.65-3.57,124.85-5.82l33.39-1.89c24.4-1.38,48.54-2.71,72.65-3.86q6.38-.32,12.75-.59,29.46-1.32,58.87-2.17l7.36-.19c2.44-.06,4.88-.13,7.34-.17l14.68-.27,3.65-.07c1.22,0,2.43-.05,3.66-.06l7.31-.08,14.56-.16c38.82-.26,76.76.13,113.4.75s72.16,1.5,106.53,2.27c31.77.72,62.62,1.37,92.52,1.79l7.27.1Q1882.79,16.17,1920,16.13Z"/></g><g id="low" class="cls-3"><path class="cls-1" d="M0,30V.38C18.54-.17,39.3-.16,61.52.65l2.82.1c9.43.38,19.09.88,28.91,1.56s19.86,1.47,30.11,2.35c20.43,1.8,41.58,4,63.69,6.43l11.49,1.24q11.09,1.2,22.57,2.41,17.47,1.81,36.12,3.5c24.84,2.24,51.6,4,79.71,5.07s57.61,1.66,88,1.75,61.67-.26,93.67-.87,64.73-1.46,98.14-2.3,67.53-1.72,102.27-2.6l96.35-2.45,118.71-3q55.25-1.41,109.11-2.59t106.07-1.61l12.6-.09q45.67-.3,89.75.11,50.09.48,97.56,2.07c31.61,1,62.28,2.31,92.07,3.59S1499.9,17.86,1528,19s55.27,2,81.56,2.65l19.53.42c6.46.12,12.87.2,19.19.3,12.65.18,25.07.24,37.19.23,48.53,0,92.5-1.52,130.14-3.91,18.8-1.21,36-2.63,51.59-4.17s29.34-3.22,41.42-4.9q6-.81,11.42-1.64V30Z"/></g></svg>